<svg width="68" height="61" viewBox="0 0 68 61" fill="none" xmlns="http://www.w3.org/2000/svg">
<g clip-path="url(#clip0)">
<path d="M55.4777 14.2021C55.3409 21.2688 53.8183 27.9592 50.0035 34.0164C49.5758 34.6837 49.3021 34.9062 48.4639 34.5468C46.1031 33.5544 43.8621 33.9308 41.9461 35.6248C40.0473 37.3017 39.3459 39.4747 39.9959 41.9558C40.167 42.6402 40.0131 42.7942 39.4143 43.0167C35.7534 44.3342 32.1268 44.3171 28.4659 42.9996C28.0382 42.8456 27.8842 42.7258 28.0382 42.2296C28.7738 39.6287 28.158 37.353 26.1051 35.5906C24.0523 33.8282 21.6915 33.5886 19.2453 34.7008C18.6465 34.9746 18.4412 34.8206 18.1504 34.3586C15.0883 29.636 13.3947 24.4343 12.7617 18.8733C12.4025 15.8105 12.4367 12.7306 12.7275 9.66773C12.8131 8.86352 13.121 8.29886 13.7197 7.78554C18.8005 3.30251 24.7024 0.684558 31.4767 0.154124C40.0473 -0.513197 47.5743 2.03631 54.1092 7.58021C54.7763 8.14487 55.1356 8.76085 55.1869 9.66773C55.2895 11.1735 55.4435 12.6792 55.4777 14.2021ZM41.7237 32.7673C42.1172 32.5278 42.5278 32.3395 42.887 32.0658C49.7469 27.0352 52.7064 19.9 53.8012 11.7724C53.8868 11.0879 53.6302 10.5404 53.0998 10.0442C48.3612 5.6638 42.8357 3.06296 36.3693 2.54964C28.1237 1.88231 21.0244 4.48316 14.9343 10.0099C14.1303 10.7286 13.9934 11.4986 14.1474 12.4397C14.6093 15.3314 15.2765 18.1889 16.4226 20.9095C18.407 25.5979 21.2126 29.6189 25.5577 32.4251C25.8485 32.6133 26.1051 32.9213 26.5841 32.7844C24.8563 30.4745 23.847 27.9078 23.368 25.1188C23.2312 24.2975 23.2483 23.6301 23.9839 22.997C29.6976 17.9322 38.2339 17.898 43.9819 22.9115C44.6832 23.5275 44.803 24.1606 44.6661 25.0161C44.2043 27.7881 43.1778 30.3205 41.604 32.6304C41.5527 32.6817 41.4671 32.7673 41.4842 32.7844C41.5527 32.9384 41.6382 32.8186 41.7237 32.7673ZM34.2651 22.8773C31.8531 22.8944 29.7318 23.7157 28.2264 25.1017C27.9014 25.3925 27.7474 25.7005 27.8158 26.1454C28.0724 27.7025 28.5685 29.174 29.4923 30.4745C31.6991 33.5544 35.2573 33.9308 37.7378 31.3471C39.1748 29.8585 39.8762 28.0276 40.1841 26.0085C40.2526 25.5808 40.0302 25.3241 39.7393 25.0674C38.0971 23.6301 36.1811 22.8944 34.2651 22.8773Z" fill="#ED182D"/>
<path d="M60.3532 0.0170898C61.4481 0.906852 62.3034 1.67684 63.1074 2.51527C63.2956 2.7206 63.3469 2.94304 63.3812 3.1997C63.9457 8.98315 64.5102 14.7666 65.0747 20.5501C65.109 20.9949 65.2458 21.2516 65.6735 21.4569C66.563 21.9018 66.9907 22.6718 66.9736 23.6813C66.9565 24.3144 66.9565 24.9304 66.9736 25.5635C66.9736 26.094 66.7854 26.6928 67.6408 26.8468C67.9316 26.8982 68.0171 27.3088 68.0171 27.6339C68.0171 29.5503 68.0171 31.4496 68.0171 33.366C68.0171 33.8109 67.8632 34.1874 67.4184 34.2729C67.0078 34.3585 66.9565 34.5809 66.9736 34.9402C66.9907 35.7444 66.9907 36.5315 66.9736 37.3358C66.9565 38.8244 66.0156 39.7826 64.5273 39.8339C63.039 39.8853 63.0561 39.8853 62.56 41.237C61.3283 44.5223 59.5663 47.4825 57.3253 50.186C56.9318 50.6651 56.7266 50.5624 56.3673 50.2031C53.2539 47.0718 50.1404 43.9576 47.0098 40.8435C46.5993 40.4328 46.5822 40.2104 47.0269 39.7997C51.3721 35.6418 53.9895 30.5085 55.5291 24.7764C56.795 20.0538 57.12 15.2457 56.6923 10.1809C58.1464 11.7038 59.2242 13.3122 60.3874 15.1602C60.3532 10.0098 60.3532 5.11611 60.3532 0.0170898Z" fill="#ED182D"/>
<path d="M7.44092 0C7.44092 5.2359 7.44092 10.2151 7.44092 15.4853C8.62129 13.5689 9.71614 11.9091 11.2387 10.2665C11.1702 11.0878 11.0847 11.6525 11.0676 12.2342C10.811 20.9778 12.6072 29.1226 17.8248 36.3433C18.6802 37.524 19.621 38.6362 20.6817 39.6115C21.1264 40.0222 21.0238 40.2275 20.6646 40.5868C17.5511 43.6668 14.4548 46.7809 11.3584 49.8951C10.982 50.2715 10.7768 50.34 10.4004 49.8609C8.22783 47.1574 6.48293 44.2143 5.35387 40.929C5.08016 40.1419 4.75513 39.7655 3.83136 39.8168C1.9496 39.9195 1.06004 38.9613 1.04293 37.0962C1.04293 36.5487 1.04293 36.0182 1.04293 35.4707C1.04293 34.9403 1.214 34.3414 0.375759 34.1874C0.0165136 34.1189 -0.0177002 33.6569 -0.0177002 33.3147C-0.0177002 31.4668 -0.0177002 29.6017 -0.0177002 27.7537C-0.0177002 27.3773 0.0336205 26.8982 0.42708 26.8297C1.14557 26.71 1.04293 26.248 1.04293 25.7689C1.04293 25.0502 1.06004 24.3487 1.04293 23.63C1.02582 22.7231 1.40217 22.0216 2.17199 21.5767C2.53123 21.3714 2.68519 21.1147 2.71941 20.7041C3.07865 16.991 3.4379 13.278 3.81425 9.56494C4.03664 7.51164 4.27614 5.47546 4.46431 3.43927C4.51563 2.89173 4.72092 2.46395 5.11438 2.12174C5.83287 1.47153 6.55136 0.821318 7.44092 0Z" fill="#ED182D"/>
<path d="M55.8712 51.7261C55.7343 51.8629 55.6317 51.9998 55.5119 52.1025C52.5695 55.0455 49.1653 57.2528 45.3333 58.8441C44.8201 59.0495 44.7004 58.827 44.5806 58.4335C43.7595 55.884 42.9212 53.3516 42.1343 50.8021C41.9632 50.2203 41.7409 49.9979 41.0908 49.9979C36.3009 50.0321 31.5109 50.015 26.721 49.9979C26.2249 49.9979 25.9854 50.1005 25.8314 50.631C25.0274 53.2147 24.172 55.7642 23.3338 58.3308C23.1798 58.8099 23.0259 58.9639 22.4785 58.7415C18.5781 57.1331 15.1738 54.8231 12.1972 51.8458C11.8551 51.5036 11.8893 51.3154 12.2143 50.9903C15.4133 47.8248 18.5952 44.6422 21.76 41.4254C22.1876 40.9976 22.4271 41.1516 22.7864 41.4254C26.8749 44.5395 31.4425 45.8913 36.5575 45.1555C39.6367 44.7106 42.3738 43.4444 44.8543 41.5965C45.2478 41.3056 45.4531 41.2542 45.8294 41.6478C49.0113 44.8646 52.2274 48.0643 55.4264 51.2641C55.5975 51.401 55.7172 51.5549 55.8712 51.7261Z" fill="#ED182D"/>
<path d="M33.9914 51.5206C36.0442 51.5206 38.0971 51.5377 40.1499 51.5035C40.6289 51.5035 40.8342 51.6404 40.9881 52.1023C41.6895 54.361 42.4251 56.5854 43.1949 58.8269C43.4002 59.4087 43.2291 59.5969 42.6646 59.7509C36.8825 61.3935 31.1003 61.4106 25.3182 59.7338C24.7708 59.5798 24.5142 59.4258 24.7537 58.7584C25.5064 56.6196 26.2077 54.4465 26.8578 52.2735C27.0631 51.6232 27.371 51.4692 28.004 51.4864C29.9884 51.5548 31.9899 51.5206 33.9914 51.5206Z" fill="#ED182D"/>
<path d="M41.7238 32.7673C41.6382 32.8186 41.5527 32.9213 41.4672 32.7844C41.4501 32.7673 41.5527 32.6817 41.5869 32.6304C41.6382 32.6817 41.6725 32.733 41.7238 32.7673Z" fill="#ED182D"/>
</g>
<defs>
<clipPath id="clip0">
<rect width="68" height="61" fill="white"/>
</clipPath>
</defs>
</svg>
